<?xml version="1.0" encoding="UTF-8"?>
<svg id="Capa_1" xmlns="http://www.w3.org/2000/svg" version="1.1" viewBox="0 0 75.6 145.7">
  <!-- Generator: Adobe Illustrator 29.0.1, SVG Export Plug-In . SVG Version: 2.1.0 Build 192)  -->
  <defs>
    <style>
      .st0 {
        fill: #fff;
      }
    </style>
  </defs>
  <g id="Capa_2">
    <g id="Capa_1-2">
      <path class="st0" d="M63.1,0c2.5.2,4.9.4,7.4.6,1.7.1,3.4.3,5.1.4v23.2h-2c-4.9,0-9.8,0-14.7.3-6.1.3-9.4,3.5-9.7,9.6-.3,6.3,0,12.7,0,19.3h25.5c-1.1,8.8-2.2,17.3-3.3,26h-22.2v66.4h-26.8v-66.3H0v-25.9h22.3v-1.8c0-6.8-.1-13.6.1-20.4.3-8.2,2.8-15.7,8.5-21.8,4.4-4.6,9.9-7.3,16-8.6,1.7-.3,3.3-.6,5-.9h11.2Z"/>
    </g>
  </g>
</svg>