<?xml version="1.0" encoding="UTF-8"?>
<svg id="Capa_1" xmlns="http://www.w3.org/2000/svg" version="1.1" viewBox="0 0 129.9 129.9">
  <!-- Generator: Adobe Illustrator 29.0.1, SVG Export Plug-In . SVG Version: 2.1.0 Build 192)  -->
  <defs>
    <style>
      .st0 {
        fill: #fff;
      }
    </style>
  </defs>
  <g id="Capa_2">
    <g id="Capa_1-2">
      <g>
        <path class="st0" d="M100,129.9H30c-2.4-.5-4.9-.8-7.3-1.6C9,123.9,0,111.6,0,97.2V32.7c0-7,2-13.4,6.1-19C12.8,4.5,22,0,33.3,0h62.8C98.3,0,100.5,0,102.7.5c12,2.2,20.4,9,24.9,20.3,1.2,2.9,1.6,6.1,2.3,9.2v70c-.2.9-.3,1.8-.5,2.7-2.2,11.9-9,20.3-20.2,24.9-2.9,1.2-6.2,1.6-9.3,2.3h.1ZM65,10.9h0c-10.6,0-21.1-.1-31.7,0-2.6,0-5.3.3-7.7,1.1-9.1,3.1-14.7,11.1-14.7,20.9v64.1c0,1.7.1,3.4.5,5,2.4,10.3,10.8,17,21.5,17h64c2.5,0,5.1-.4,7.4-1.2,9.1-3.1,14.6-11,14.6-20.8V32.8c0-1.3,0-2.6-.3-3.9-1.3-9.6-10.3-17.9-19.9-18-11.3-.2-22.6,0-33.9,0h.2Z"/>
        <path class="st0" d="M64.9,97.4c-17.9,0-32.5-14.7-32.5-32.5s14.6-32.4,32.5-32.4,32.5,14.7,32.5,32.5-14.6,32.4-32.5,32.4ZM65,86.6c12,0,21.6-9.7,21.6-21.6s-9.6-21.6-21.6-21.6-21.7,9.7-21.7,21.7,9.7,21.6,21.7,21.6h0Z"/>
        <path class="st0" d="M100.1,37.8c-4.5,0-8.1-3.5-8.1-8s3.6-8.2,8.1-8.2,8.2,3.8,8.1,8.2c0,4.5-3.7,8-8.1,8Z"/>
      </g>
    </g>
  </g>
</svg>