<?xml version="1.0" encoding="UTF-8"?>
<svg id="Capa_1" xmlns="http://www.w3.org/2000/svg" version="1.1" viewBox="0 0 116.9 116.9">
  <!-- Generator: Adobe Illustrator 29.0.1, SVG Export Plug-In . SVG Version: 2.1.0 Build 192)  -->
  <defs>
    <style>
      .st0 {
        fill: #fff;
      }
    </style>
  </defs>
  <g id="Capa_2">
    <g id="Capa_1-2">
      <g>
        <path class="st0" d="M41.4,38.9h23.1v10.5c.3-.2.5-.2.5-.3,5.2-8.3,12.9-11.9,22.4-12.1,5.3,0,10.5.5,15.4,2.9,6.3,3,9.8,8.3,11.8,14.8,1.6,5.2,2.1,10.6,2.2,16.1v45.9h-24.2v-39.8c0-2.9-.2-5.8-.8-8.7-1.5-8-6.7-10.7-14.1-9.8-6.8.8-10.5,4.8-11.6,12.1-.4,2.7-.6,5.4-.6,8.1v38.3h-24.2V38.9h0Z"/>
        <path class="st0" d="M26.1,116.9H2V39h24v77.9h.1Z"/>
        <path class="st0" d="M28,14c0,7.7-6.2,14.2-13.9,14.2-7.7,0-14.1-6.4-14.1-14.1S6.3,0,13.9,0s14.1,6.2,14.1,14h0Z"/>
      </g>
    </g>
  </g>
</svg>