<?xml version="1.0" encoding="UTF-8"?>
<svg id="Capa_2" xmlns="http://www.w3.org/2000/svg" width="444.91" height="105.01" viewBox="0 0 444.91 105.01">
  <defs>
    <style>
      .cls-1 {
        letter-spacing: -.09em;
      }

      .cls-1, .cls-2, .cls-3, .cls-4 {
        font-family: HelveticaNeue, 'Helvetica Neue';
      }

      .cls-2 {
        letter-spacing: -.05em;
      }

      .cls-5 {
        font-size: 21.33px;
      }

      .cls-5, .cls-6 {
        fill: #fff;
      }

      .cls-3 {
        letter-spacing: 0em;
      }

      .cls-7 {
        font-family: RobotoCondensed-Light, 'Roboto Condensed Light';
        font-weight: 300;
      }
    </style>
  </defs>
  <g id="Capa_1-2" data-name="Capa_1">
    <g>
      <rect class="cls-6" width="49.98" height="49.98"/>
      <rect class="cls-6" y="55.03" width="49.98" height="49.98"/>
    </g>
    <g>
      <g>
        <path class="cls-6" d="M88.51,11.62c7.41,0,14.7,2.33,14.7,12.55v1.2c0,4.6-2.15,7.29-5.2,8.85,3.65,1.55,6.4,4.42,6.4,9.74v1.2c0,10.58-7.65,13.09-15.3,13.09h-14.88V11.62h14.28ZM82.24,18.61v12.25h6.28c3.35,0,6.57-1.26,6.57-5.74v-.78c0-4.48-3.23-5.74-6.57-5.74h-6.28ZM82.24,37.86v13.39h7.17c3.47,0,6.87-1.55,6.87-6.34v-.66c0-4.84-3.41-6.4-6.87-6.4h-7.17Z"/>
        <path class="cls-6" d="M131.49,11.38l12.25,46.86h-8.61l-2.57-10.64h-13.15l-2.57,10.64h-8.67l12.25-46.86h11.06ZM121.09,40.61h9.74l-4.84-20.08-4.9,20.08Z"/>
        <path class="cls-6" d="M156.48,58.24h-8.01V11.62h14.58c7.29,0,15.6,2.15,15.6,13.99v1.2c0,7.47-3.35,11.12-7.59,12.79l7.59,18.65h-8.67l-6.69-17.39h-6.81v17.39ZM163.35,33.85c3.11,0,7.17-1.14,7.17-7.29v-.66c0-6.16-4.06-7.29-7.17-7.29h-6.87v15.24h6.87Z"/>
        <path class="cls-6" d="M193,58.24h-8.01V11.62h14.58c7.29,0,15.6,2.15,15.6,13.99v1.2c0,7.47-3.35,11.12-7.59,12.79l7.59,18.65h-8.67l-6.69-17.39h-6.81v17.39ZM199.87,33.85c3.11,0,7.17-1.14,7.17-7.29v-.66c0-6.16-4.06-7.29-7.17-7.29h-6.87v15.24h6.87Z"/>
        <path class="cls-6" d="M229.82,58.24h-8.01V11.62h8.01v46.62Z"/>
        <path class="cls-6" d="M236.39,36.12v-2.39c0-16.14,5.56-22.89,17.27-22.89s17.21,6.75,17.21,22.89v2.39c0,16.14-5.56,22.89-17.21,22.89s-17.27-6.75-17.27-22.89ZM253.91,52.02c6.51,0,8.79-5.38,8.79-15.9v-2.39c0-10.52-2.27-15.9-8.79-15.9h-.54c-6.51,0-8.79,5.38-8.79,15.9v2.39c0,10.52,2.27,15.9,8.79,15.9h.54Z"/>
        <path class="cls-6" d="M288.1,24.95v-.6c0-8.25,5.86-13.51,15.96-13.51,11.06,0,15.9,5.2,15.9,15.72v1.37h-8.01c0-6.99-2.27-10.1-7.83-10.1h-.54c-4.42,0-7.29,2.45-7.29,6.1v.36c0,3.83,1.73,5.98,9.08,6.99,10.16,1.37,15,5.02,15,13.21v.66c0,8.73-5.92,13.87-16.32,13.87s-16.38-5.2-16.38-15.9v-.6h8.01c0,6.63,3.05,9.5,8.07,9.5h.54c5.02,0,7.89-2.69,7.89-6.57v-.36c0-4.06-2.27-6.22-9.38-7.17-10.16-1.37-14.7-5.26-14.7-12.97Z"/>
        <path class="cls-6" d="M346.25,11.38l12.25,46.86h-8.61l-2.57-10.64h-13.15l-2.57,10.64h-8.67l12.25-46.86h11.06ZM335.86,40.61h9.74l-4.84-20.08-4.9,20.08Z"/>
        <path class="cls-6" d="M396.29,58.24h-8.49l-17.21-32.16.24,9.86v22.29h-7.59V11.62h8.49l17.21,32.16-.24-9.86V11.62h7.59v46.62Z"/>
        <path class="cls-6" d="M402.56,36.12v-2.39c0-16.14,5.56-22.89,17.27-22.89s17.21,6.75,17.21,22.89v2.39c0,16.14-5.56,22.89-17.21,22.89s-17.27-6.75-17.27-22.89ZM420.08,52.02c6.52,0,8.79-5.38,8.79-15.9v-2.39c0-10.52-2.27-15.9-8.79-15.9h-.54c-6.52,0-8.79,5.38-8.79,15.9v2.39c0,10.52,2.27,15.9,8.79,15.9h.54Z"/>
      </g>
      <text class="cls-5" transform="translate(74.23 91.55)"><tspan class="cls-4" x="0" y="0">CLINICA PREVENTI</tspan><tspan class="cls-2" x="189.54" y="0">V</tspan><tspan class="cls-4" x="201.59" y="0">A COMUNI</tspan><tspan class="cls-1" x="307.84" y="0">T</tspan><tspan class="cls-3" x="318.12" y="0">ARIA</tspan><tspan class="cls-7" x="365.89" y="0"> </tspan></text>
    </g>
  </g>
</svg>