<?xml version="1.0" encoding="UTF-8"?>
<svg id="Capa_2" xmlns="http://www.w3.org/2000/svg" width="121.35" height="108.57" viewBox="0 0 121.35 108.57">
  <defs>
    <style>
      .cls-1 {
        fill: #fff;
      }
    </style>
  </defs>
  <g id="Capa_1-2" data-name="Capa_1">
    <g>
      <path class="cls-1" d="M0,97.66c.09-.3.18-.59.26-.89,1.08-4.23,4.59-7.11,8.96-7.35.39-.02.79-.02,1.18-.02,33.53,0,67.06,0,100.58,0,5.01,0,8.7,2.58,9.98,6.95,1.74,5.97-2.66,12.02-8.87,12.21-.43.01-.87.01-1.3.01-33.41,0-66.82,0-100.23,0-5.65,0-8.86-2.43-10.42-7.89-.02-.07-.1-.12-.15-.18,0-.95,0-1.9,0-2.84Z"/>
      <path class="cls-1" d="M0,8.07c.6-2.06,1.4-4,3.05-5.49C4.92.9,7.09,0,9.61,0,14.78,0,19.96,0,25.13,0c28.71,0,57.42,0,86.13,0,4.65,0,8.29,2.52,9.62,6.62,1.94,6.02-2.3,12.13-8.71,12.53-.55.03-1.11.03-1.66.03-32.94,0-65.87,0-98.81,0C4.75,19.18,2.3,17.45,0,10.91v-2.84Z"/>
      <path class="cls-1" d="M0,52.86c.14-.44.29-.89.42-1.33,1.19-3.9,4.59-6.57,8.64-6.78.35-.02.71-.02,1.07-.02,33.68,0,67.37,0,101.05,0,4.91,0,8.57,2.62,9.81,6.99,1.65,5.85-2.56,11.76-8.62,12.1-.59.03-1.18.03-1.78.03-32.97,0-65.95-.07-98.92.07C5.49,63.94,1.35,61.4,0,55.71,0,54.76,0,53.81,0,52.86Z"/>
    </g>
  </g>
</svg>